<svg xmlns="http://www.w3.org/2000/svg" xmlns:xlink="http://www.w3.org/1999/xlink" viewBox="0 0 1000 1000"><defs><style>.cls-1{fill:url(#Degradado_sin_nombre_48);}.cls-2{fill:url(#Degradado_sin_nombre_48-2);}.cls-3{fill:url(#Degradado_sin_nombre_48-3);}.cls-4{fill:url(#Degradado_sin_nombre_48-4);}.cls-5{fill:url(#Degradado_sin_nombre_48-5);}</style><linearGradient id="Degradado_sin_nombre_48" x1="200.76" y1="661.68" x2="481.52" y2="661.68" gradientUnits="userSpaceOnUse"><stop offset="0" stop-color="#00004d"/><stop offset="1" stop-color="#a20017"/></linearGradient><linearGradient id="Degradado_sin_nombre_48-2" x1="464.22" y1="433.39" x2="515.17" y2="433.39" xlink:href="#Degradado_sin_nombre_48"/><linearGradient id="Degradado_sin_nombre_48-3" x1="381.22" y1="380.46" x2="479.28" y2="380.46" xlink:href="#Degradado_sin_nombre_48"/><linearGradient id="Degradado_sin_nombre_48-4" x1="410.04" y1="271.81" x2="456.69" y2="271.81" xlink:href="#Degradado_sin_nombre_48"/><linearGradient id="Degradado_sin_nombre_48-5" x1="465.39" y1="242.86" x2="868.11" y2="242.86" xlink:href="#Degradado_sin_nombre_48"/></defs><title>Mesa de trabajo 1</title><g id="Capa_3" data-name="Capa 3"><path class="cls-1" d="M399.35,501.88c12.25,5.38,12.37,21.12,11,32.49-1,8.59-3,17.11-4.63,25.62l-5.39,28.59q-5.43,28.84-10.88,57.69c-3.37,17.89-6.47,36-12.24,53.27-9.8,29.45-29.08,53.36-50.7,75.09-21.08,21.19-44,40.66-62.9,64-19.16,23.69-31.37,53-53.81,74a92.56,92.56,0,0,1-9.14,7.51,1.53,1.53,0,0,0-.54,2.05c2.4,3.52,6.63,3.44,10.35,2.26,5.17-1.65,10.12-4.63,14.89-7.15A340.07,340.07,0,0,0,256,899a497.8,497.8,0,0,0,55.7-44.08c17.84-16.09,34.86-33.07,51.71-50.19,18-18.31,36.36-36.45,52.47-56.49a303.59,303.59,0,0,0,59.81-125.67,299.38,299.38,0,0,0,6.81-69.67c-.24-11.56-.79-23.58-5.37-34.36-3.9-9.21-10.86-16.35-19.06-21.89-8.52-5.76-18-9.86-27.23-14.34a132.85,132.85,0,0,1-26.56-16.56,122,122,0,0,1-36.64-51.3,119.45,119.45,0,0,1-4.49-15.17,1.51,1.51,0,0,0-2.51-.66l-32.52,35.73c-4.34,4.76-9,9.57-11.39,15.67a26,26,0,0,0-.14,17.69c4.11,12.54,14.26,21,23.31,30,4.89,4.84,9.49,10,12.51,16.25,3.18,6.59,4.5,13.94,5,21.18.47,7,.23,14,0,21-.21,7.45-.45,14.89-.95,22.32-1,15-3.09,29.93-8.07,44.11s-12.76,26.8-20.91,39.16c-8.65,13.12-17.48,26.13-26.22,39.19-9.25,13.81-18.25,27.83-28,41.28-9.17,12.62-19.41,24.64-32,34l1.82,2.35c19.85-16.06,40-31.83,59.45-48.36,17-14.48,32.75-30.24,46-48.28a267.69,267.69,0,0,0,48-113.39,259,259,0,0,0,2.38-69.95l-2.56,1.06,7,6.07c1.45,1.26,3.58-.85,2.12-2.12l-7-6.07c-.88-.76-2.71-.34-2.56,1.06A261.26,261.26,0,0,1,379.11,620,263,263,0,0,1,350,674.53a268.23,268.23,0,0,1-43.72,48.26c-21.15,18.58-43.54,35.82-65.42,53.52-1.31,1.06.44,3.37,1.82,2.36C265.11,762.14,280,738,295.21,715.22l27-40.28c8.13-12.15,16.5-24.24,23-37.37,13.32-26.93,14.58-56.71,15.31-86.2.34-13.53.29-27.86-6.15-40.17-6.11-11.68-17.24-19.28-25.76-29-4.93-5.63-9.21-12.55-10.32-20.08-1.25-8.49,2.78-15.35,8.18-21.52,11.84-13.5,24.18-26.59,36.26-39.87l-2.51-.66a124.27,124.27,0,0,0,50.1,74c8.27,5.73,17.29,10,26.33,14.35s18.19,8.74,25.78,15.3c8.37,7.23,13.24,16.61,15.27,27.42,2.15,11.42,2,23.42,1.75,35a293.58,293.58,0,0,1-2.92,34.78,302.54,302.54,0,0,1-49.27,127c-14.23,20.83-31.4,39.32-49,57.34-16.45,16.88-32.95,33.75-50,50.07-33.54,32.16-69.73,62.4-111.62,83.1-3.14,1.55-11.07,6.56-14,2.31l-.54,2c25.93-18.64,38.92-48.73,57.27-73.85,18.17-24.86,41.66-45.1,63.54-66.54,21.59-21.15,42.14-44.13,53.63-72.5,7-17.23,10.6-35.57,14-53.77q5.58-29.52,11.13-59.05c3.62-19.18,7.59-38.34,10.84-57.59,1.91-11.25,3-25.77-4.9-35.12a19,19,0,0,0-6.86-5c-1.75-.77-3.28,1.81-1.52,2.59Z"/></g><g id="Capa_4" data-name="Capa 4"><path class="cls-2" d="M494.08,428.89a46.2,46.2,0,0,0-19.25,6.84c-5.41,3.6-10.29,9.15-11.39,15.75-.55,3.33-.09,7.12,2.67,9.38s6.8,2.14,10.09,1c3.72-1.33,6.85-4.09,10.74-5a11.39,11.39,0,0,1,8.19,1.62c6,3.41,10.73,9.32,17.82,10.56,1.29.22,2.75-1.47,1.46-2.51a23,23,0,0,1-8.11-13.22c-1.15-5.46.21-10.69,2.05-15.83s4.12-10.17,4.53-15.63a15.81,15.81,0,0,0-5.55-13.31c-4.06-3.53-9.53-5.63-12.75-10.07l-2.36,1.82a20.13,20.13,0,0,1,4.33,19.29c-1.06,3.59-3.27,6.2-5.53,9.09s-4.47,6.37-3,10.11c.69,1.78,3.59,1,2.89-.8-1.46-3.77,2.37-7.28,4.5-10a22.26,22.26,0,0,0,4.55-9.67,23.2,23.2,0,0,0-5.6-20.17C493.2,397,491,398.58,492,400c3,4.11,7.48,6.4,11.51,9.32s6.69,6.95,6.4,12.19c-.31,5.53-2.92,10.79-4.72,15.94s-2.9,10.44-1.92,15.92a25.51,25.51,0,0,0,9,15.29l1.46-2.51c-5.73-1-10-5.44-14.6-8.65a20.47,20.47,0,0,0-7.4-3.56,14.39,14.39,0,0,0-9.43,1.47c-3.19,1.55-6.16,3.86-9.78,4.25-3.34.35-6-1.46-6.29-4.92-.47-6.09,4.09-12,8.69-15.4,5.77-4.31,12.88-6.57,19.95-7.53a1.51,1.51,0,0,0,1.05-1.85,1.54,1.54,0,0,0-1.85-1.05Z"/></g><g id="Capa_5" data-name="Capa 5"><path class="cls-3" d="M446.68,321.4c-11.51,3.87-21.74,10.51-31.12,18.12-4.74,3.85-9.29,7.94-13.73,12.14a110.49,110.49,0,0,0-11.62,12.56,49.52,49.52,0,0,0-8.18,15c-2,6.13-2.09,12.59-1.45,18.94s1.45,13.25,3.47,19.44A29.64,29.64,0,0,0,393,431.12c18.88,16.1,46.19,6.82,63.09-7.48,16-13.57,26.91-34.89,23.61-56.21-3-19.38-18.43-37.63-38.12-41.26a40.07,40.07,0,0,0-7.33-.68l1.06,2.56c4-3.2,9.94-1.21,13.25,2,4.57,4.45,4.93,11.61,4.54,17.58-.83,12.68-3.83,26.81-12.3,36.71a33.27,33.27,0,0,1-14.85,10.19,25.36,25.36,0,0,1-8.6,1.24c-3.16-.11-6.7-.79-9-3.12-3.86-3.91-3.07-10.5-1.47-15.22a24.77,24.77,0,0,1,9.91-13.06c5.11-3.17,11.18-3.5,16.16.07,4.31,3.1,7.45,9,4.9,14.21-.85,1.72,1.74,3.24,2.59,1.51,2.68-5.43.89-11.52-3.09-15.81a16.7,16.7,0,0,0-16.33-5c-6.18,1.52-11.22,6.16-14.4,11.54s-5.18,12.47-3.37,18.67a11.78,11.78,0,0,0,5.86,7.32,20.61,20.61,0,0,0,10.53,1.88,32.56,32.56,0,0,0,18.7-7.78c11.73-9.67,15.83-25.27,17.45-39.77.78-7,1-15.21-3.36-21.23-3.36-4.64-9.69-7.76-15.41-6.11a10.88,10.88,0,0,0-3.82,2.05c-1.06.84-.14,2.56,1.06,2.56,19.17,0,35.44,15.19,41,32.87,6.07,19.45-1.88,40.37-15.44,54.68-14.26,15-38.95,27.32-59.1,16.68a28.41,28.41,0,0,1-11-10c-3.15-5.09-4.18-11.11-5.07-16.94-1-6.3-1.85-12.74-1.13-19.11a38.23,38.23,0,0,1,5.45-15.35c5.73-9.5,14.28-17.16,22.53-24.43,8.56-7.55,17.73-14.56,28.09-19.45a72.61,72.61,0,0,1,7.94-3.18c1.82-.61,1-3.51-.8-2.9Z"/><path class="cls-4" d="M423,286.88a3.59,3.59,0,0,0-4.21-3.16c-2.41.29-3.63,2.56-4.31,4.65-1.92,6-3.54,12.05-5.3,18.06a1.54,1.54,0,0,0,.69,1.7c2.08,1.14,4.4.25,5.9-1.43s1.77-4.59,3.72-5.77,4.83.29,6.6,1.37c2.34,1.43,4.56,3.05,7,4.4,4.64,2.6,10.15,4.64,15.47,3a13.15,13.15,0,0,0,8.12-7.86,13.37,13.37,0,0,0-1.15-12.57,1.56,1.56,0,0,0-2.06-.54c-2.65,1.38-5.5-.77-6.93-3-2.14-3.25-1.67-7.29-1.33-11s.55-7.39-.59-11a21.11,21.11,0,0,0-4.81-8.11,20.39,20.39,0,0,0-9.25-5.6,1.52,1.52,0,0,0-1.9,1.45L428,263.25c-.09,1.66,2.7,2.09,2.94.4a34.46,34.46,0,0,0-3.09-20,33.48,33.48,0,0,0-5.93-8.55,8.47,8.47,0,0,0-1.69-1.59,2.56,2.56,0,0,0-2.37.31,6.48,6.48,0,0,0-2.83,3c-1.42,2.93-1.22,6.22-.63,9.33A56.7,56.7,0,0,0,418,256.9a60.15,60.15,0,0,1,3.67,10.76,34.7,34.7,0,0,1,.54,10.12A35.46,35.46,0,0,1,413,298.52c-1.31,1.42.8,3.54,2.12,2.12a38.8,38.8,0,0,0,10.13-24.39,37.44,37.44,0,0,0-1.86-13.5c-1.57-4.78-3.89-9.27-5.33-14.09a20.48,20.48,0,0,1-1.13-7.79c.19-1.86.91-4.06,2.89-4.61l-1.46-.38a31.21,31.21,0,0,1,9.64,27l3,.4.64-11.69-1.9,1.44a17.85,17.85,0,0,1,12.53,13.87c.74,4.15-.36,8.39-.36,12.56a13.52,13.52,0,0,0,3.56,9.79c2.51,2.58,6.16,3.83,9.5,2.1l-2.05-.54c4,5.65.85,14.66-6,16.24-4.82,1.11-9.66-1.28-13.68-3.7-3.69-2.21-7.7-6-12.31-5.81a6.42,6.42,0,0,0-5.44,3.61c-.63,1.14-2.07,5.52-4.09,4.42l.69,1.69,3.86-13.15a42.38,42.38,0,0,1,1.81-5.9c.27-.59.68-1.37,1.38-1.5.17,0,.87.05.88.2.2,1.9,3.2,1.92,3,0Z"/></g><g id="Capa_6" data-name="Capa 6"><path class="cls-5" d="M618.45,410.56l24.13-20.7a1.5,1.5,0,0,0-.3-2.35c-19-10.05-38.5-22.34-50.85-40.43a60.45,60.45,0,0,1-10.84-30.31c-.77-12.62,2.61-25.21,8.33-36.39,11.78-23,32.87-39.62,53.1-54.86a600.16,600.16,0,0,1,67.14-43.9c11.57-6.51,23.33-12.74,35.37-18.31s24.52-10.27,37.6-12.48a92.48,92.48,0,0,1,10.23-1.13c1.36-.08,2.2-2.11.76-2.8-36.65-17.37-80-5.75-115.78,8.33a322.38,322.38,0,0,0-98.23,61c-4,3.64-8,7.34-11.71,11.23s-7.08,7.86-9.22,12.66c-3.56,8-2.82,18.51,4.86,23.86l1.51-2.59c-9.83-5.6-20.13-13.06-24-24.18s-.26-23.14,6.42-32.37c7.31-10.1,18.47-16.6,29.57-21.75,12.28-5.7,25-10.58,37.48-15.74,26.27-10.84,52.58-21.57,79-31.91s52.81-20.21,79.52-29.46,53.63-17.83,80.83-25.46q5.13-1.44,10.27-2.83c1.59-.43,1.32-3-.4-3q-39.57,2.45-79.07,5.77c-24.93,2.1-49.85,4.48-74.62,8A547.57,547.57,0,0,0,635.64,104,358.18,358.18,0,0,0,574,127.82a274.79,274.79,0,0,0-53.67,35c-16.62,14-32.17,30.39-43.1,49.27a93.52,93.52,0,0,0-11.65,31,91,91,0,0,0,.63,32.45c4.26,21.84,15.38,41.75,29.61,58.65,14.81,17.59,32.77,32.15,50.92,46.14,9,7,18.07,14.1,28,19.86,9.35,5.45,19.8,9.92,30.77,10.28A39,39,0,0,0,620.59,408c1.78-.68,1-3.58-.8-2.89-21.54,8.16-43.47-6.17-60.11-18.6-18-13.48-36.07-27.37-51.83-43.5-15.54-15.91-28.62-34.42-35.51-55.74-6.79-21-6.72-43.43,2.4-63.76,8.82-19.67,23.59-36.6,39.28-51.13a259.49,259.49,0,0,1,51.47-36.71c40.11-22.07,84.65-34.38,129.61-41.84,24.15-4,48.51-6.67,72.88-8.89q38.14-3.47,76.36-6,9.45-.64,18.9-1.22l-.4-2.94c-28.13,7.62-56,16.29-83.55,25.69s-55.17,19.64-82.46,30.26-54.22,21.57-81.2,32.69c-12.85,5.3-25.84,10.38-38.52,16.08-11.28,5.08-22.66,11.36-30.65,21-7.18,8.71-11.89,20.15-10.28,31.57,1.65,11.67,10,20.59,19.27,27.1,2.45,1.7,5,3.26,7.59,4.74a1.5,1.5,0,0,0,1.51-2.59c-7.17-5-6.39-15.27-2.62-22.07,4.45-8,12.11-14.41,18.81-20.52a319.28,319.28,0,0,1,93.7-59.22c17.25-7.05,35.24-12.94,53.63-16.12,21.21-3.67,43.77-3.37,63.54,6l.75-2.79c-27.31,1.56-52.52,14.82-76.12,27.59A600.57,600.57,0,0,0,646,218.8c-20.83,15.33-42.75,31.75-56.41,54.18-6.54,10.72-11,22.89-12,35.47a61.42,61.42,0,0,0,7.08,33.36c10.45,19.78,29.74,33.57,48.77,44.33,2.4,1.36,4.82,2.67,7.25,4l-.3-2.36-24.13,20.7c-1.47,1.26.66,3.37,2.12,2.12Z"/></g></svg>