<svg xmlns="http://www.w3.org/2000/svg" xmlns:xlink="http://www.w3.org/1999/xlink" viewBox="0 0 1000 1000"><defs><style>.cls-1{fill:url(#Degradado_sin_nombre_48);}.cls-2{fill:url(#Degradado_sin_nombre_48-2);}.cls-3{fill:url(#Degradado_sin_nombre_48-3);}.cls-4{fill:url(#Degradado_sin_nombre_48-4);}.cls-5{fill:url(#Degradado_sin_nombre_48-5);}</style><linearGradient id="Degradado_sin_nombre_48" x1="201.43" y1="661.69" x2="481.02" y2="661.69" gradientUnits="userSpaceOnUse"><stop offset="0" stop-color="#00004d"/><stop offset="1" stop-color="#a20017"/></linearGradient><linearGradient id="Degradado_sin_nombre_48-2" x1="464.72" y1="433.4" x2="513.34" y2="433.4" xlink:href="#Degradado_sin_nombre_48"/><linearGradient id="Degradado_sin_nombre_48-3" x1="381.72" y1="380.5" x2="478.78" y2="380.5" xlink:href="#Degradado_sin_nombre_48"/><linearGradient id="Degradado_sin_nombre_48-4" x1="410.63" y1="271.8" x2="456.19" y2="271.8" xlink:href="#Degradado_sin_nombre_48"/><linearGradient id="Degradado_sin_nombre_48-5" x1="465.89" y1="242.89" x2="863.24" y2="242.89" xlink:href="#Degradado_sin_nombre_48"/></defs><title>Mesa de trabajo 1</title><g id="Capa_3" data-name="Capa 3"><path class="cls-1" d="M400.11,500.58c14,5.86,13.54,25.52,10.73,40.4L389.66,653.3c-3.89,20.62-7.84,41.44-16.37,60.61-24.17,54.25-80.42,86.53-115.37,134.54-18.21,25-31.27,55-56.49,73,2.08,3.55,7.45,2.32,11.18.56,61.91-29.21,111.21-79.09,159.13-128,16.12-16.44,32.28-32.93,46.4-51.13a302.29,302.29,0,0,0,62.65-195.32c-.45-11.52-1.7-23.44-7.53-33.38-10.77-18.35-33.48-24.9-52.11-35.18a122.36,122.36,0,0,1-59.5-79.36l-33.9,37.25c-4.13,4.54-8.38,9.27-10.22,15.13-3.6,11.44,3,23.65,11.13,32.46s18.18,16.17,24,26.67c6.92,12.56,6.71,27.67,6.32,42-.65,24.18-1.39,48.87-9.8,71.55-6,16.23-15.75,30.79-25.39,45.18l-36.16,54C274.49,743.47,261,763.46,242,777.37l39.24-31.74c14.32-11.59,28.67-23.2,41.69-36.24,54.45-54.57,82.61-134.28,74.53-210.94l7,6.07"/></g><g id="Capa_4" data-name="Capa 4"><path class="cls-2" d="M494.48,430.34c-12.22,1.62-25.33,7.74-29.09,19.48-1.06,3.31-1.08,7.42,1.51,9.75,2.79,2.51,7.23,1.74,10.6.09s6.54-4,10.27-4.47c9.61-1.11,16,10.85,25.57,12.39a24.13,24.13,0,0,1-8.8-21.76c1.52-11.12,10.69-22.55,5.1-32.27-3.65-6.34-12.13-8.37-16.36-14.33,6.83,7.11,7.51,19.29,1.52,27.12-2.82,3.68-7.17,7.76-5.35,12"/></g><g id="Capa_5" data-name="Capa 5"><path class="cls-3" d="M447.08,322.85c-16.24,5.4-29.87,16.56-42.41,28.21-9.86,9.16-19.77,19.59-22.28,32.81-1.37,7.21-.4,14.64.7,21.9.82,5.48,1.75,11,4.28,16,4.9,9.52,15.47,15.34,26.14,16.26s21.36-2.53,30.67-7.83c20.42-11.64,35.58-33.95,34.55-57.43s-21-45.84-44.49-45.75c5.24-4.35,13.86-1.24,17.41,4.57s3.36,13.11,2.59,19.87C453,362.57,450.3,373.89,443.76,383S426.15,398.57,415,397.11a13.75,13.75,0,0,1-7.26-2.89c-4.08-3.55-4.31-9.87-3-15.11,2.4-9.41,10-18.22,19.71-18.78s19.05,10.46,14.62,19.1"/><path class="cls-4" d="M421.5,286.88c0-1.54-2.25-2.17-3.53-1.34s-1.81,2.44-2.25,3.91q-2.55,8.7-5.09,17.38c1.6,1,3.73-.38,4.69-2s1.46-3.67,3-4.85c2.67-2.1,6.55-.32,9.38,1.57,6.18,4.13,13.34,8.89,20.46,6.73s10.5-12.19,6.07-18.23c-4.32,2.41-9.59-2.28-10.5-7.15s.63-9.87.21-14.81a19.19,19.19,0,0,0-13.78-16.5l-.64,11.69a32.64,32.64,0,0,0-10-28.43c-3.16.75-4.24,4.74-4,8,.54,7.84,5.08,14.8,7.16,22.39a37,37,0,0,1-8.51,34.38"/></g><g id="Capa_6" data-name="Capa 6"><path class="cls-5" d="M617.39,409.5l24.13-20.7c-27.57-14.53-56.36-35-61.7-65.73-3.18-18.3,2.94-37.3,13.28-52.74s24.61-27.78,39.23-39.25a600,600,0,0,1,100.45-63.73c18.77-9.44,38.6-18,59.58-19.15-27.55-13.21-60.27-9-89.54-.21A319.62,319.62,0,0,0,571,226c-5.12,5-10.23,10.51-12.45,17.35s-.75,15.4,5.25,19.37c-10.8-6.11-21.47-14.37-25.13-26.22-4.27-13.81,2.37-29.12,12.82-39.11s24.12-15.73,37.47-21.26c89.95-37.28,180.3-74.4,274.28-99.85Q823.09,78.75,783,82.14c-52.75,4.47-105.81,10.23-156.31,26.09s-98.77,42.56-132.81,83.1c-11.75,14-21.86,29.87-25.94,47.67-6.77,29.51,4,60.86,21.94,85.28s42.32,43.14,66.38,61.51c18.66,14.26,42,29.29,63.94,20.77"/></g></svg>